<?xml version="1.0" encoding="utf-8"?>
<!-- Generator: Adobe Illustrator 23.1.0, SVG Export Plug-In . SVG Version: 6.00 Build 0)  -->
<svg version="1.1" xmlns="http://www.w3.org/2000/svg" xmlns:xlink="http://www.w3.org/1999/xlink" x="0px" y="0px"
	 viewBox="0 0 595.3 595.3" enable-background="new 0 0 595.3 595.3" xml:space="preserve">
<g id="Capa_1">
</g>
<g id="Capa_2">
	<path fill="#2B4093" d="M320.9,462.4c0,0,89.1-12.9,75.8-100.5L330.4,53.3c0,0-5.9-26.1-30.6-26.1c0,0-22-4.7-32.4,32.4
		l-71.6,299.3c0,0-25.4,85.9,78.7,103v30.8h-46.7c0,0-54.5-2.1-50.3,71h238c0,0,14.9-67.1-46.9-71l-47.7-0.4L320.9,462.4z"/>
	<g>
		<path fill="#222E5C" d="M284.1,468.1c0.1,10.3,0.3,20.5,0.3,30.8l0,0.3l-0.3,0l-23.3,0.1l-23.3,0l0,0l0,0
			c-3.9-0.5-7.9-0.3-11.8,0.2c-3.9,0.5-7.8,1.5-11.4,3.1c-3.6,1.5-7,3.6-10.1,6.1c-3,2.5-5.6,5.5-7.8,8.9
			c-4.4,6.6-6.8,14.4-8.2,22.2c-1.3,7.8-1.6,15.9-1.2,23.8c-0.5-8-0.5-16,0.7-23.9c1.2-7.9,3.6-15.7,8-22.5c2.2-3.4,4.8-6.5,7.9-9.1
			c3.1-2.6,6.6-4.7,10.3-6.3c7.4-3.1,15.6-4.3,23.7-3.4l-0.1,0l23.3,0l23.3,0.1l-0.3,0.3C283.9,488.6,284,478.3,284.1,468.1z"/>
	</g>
	<g>
		<path fill="#222E5C" d="M298.5,33.8c-1.2-0.4-2.5,0-3.6,0.6c-1.1,0.6-2,1.4-2.9,2.3c-1.7,1.8-3.1,3.9-4.3,6.1
			c-2.4,4.4-4.2,9-5.8,13.8c-1.6,4.7-3,9.5-4,14.4l-3.4,14.6l-13.7,58.4l-27.7,116.7l-14,58.3l-7,29.2l-3.5,14.6
			c-0.6,2.5-1.2,4.8-1.6,7.2c-0.4,2.4-0.7,4.9-0.9,7.4c-0.8,9.9,0.2,19.9,3.1,29.4c2.9,9.5,7.8,18.3,14.4,25.7
			c6.6,7.5,14.6,13.6,23.3,18.4c8.7,4.8,18.1,8.4,27.7,11.1c-9.7-2.6-19.1-6-28-10.7c-8.8-4.7-17.1-10.7-23.8-18.2
			c-6.8-7.5-11.9-16.4-14.9-26c-3.1-9.6-4.1-19.8-3.4-29.9c0.2-2.5,0.5-5,0.9-7.5c0.4-2.5,1.1-5,1.6-7.4l3.5-14.6l6.9-29.2
			l13.9-58.3l28.1-116.6l14.2-58.3l3.6-14.6c1.1-4.9,2.6-9.7,4.3-14.4c1.7-4.7,3.6-9.4,6.1-13.7c1.3-2.2,2.7-4.3,4.4-6.1
			c0.9-0.9,1.9-1.7,3-2.3C296,33.7,297.3,33.3,298.5,33.8z"/>
	</g>
	<g>
		<path fill="#222E5C" d="M319.7,492.1l-0.3-29.8l0-0.1l0.1,0c5.1-0.9,10.2-2.3,15.1-3.9c4.9-1.7,9.8-3.6,14.4-5.9
			c4.7-2.3,9.2-4.9,13.5-7.9c4.3-3,8.3-6.3,11.9-10c7.4-7.3,13.1-16.2,16.8-26c3.6-9.7,5.2-20.2,5.1-30.6c0-2.6-0.2-5.2-0.4-7.8
			c-0.3-2.6-0.6-5.2-0.9-7.7c-1-5.1-2.2-10.2-3.2-15.3l-6.6-30.6L372,255.4l-26.1-122.4l-13-61.2l-3.2-15.3
			c-0.8-5.2-2.8-10.1-5.4-14.5c-2.7-4.4-6.3-8.4-10.8-11.1c-4.5-2.7-9.7-4-14.9-4c5.2,0,10.5,1.2,15,3.9c4.5,2.7,8.2,6.6,10.9,11
			c2.7,4.4,4.7,9.4,5.6,14.6l3.3,15.3l13.2,61.1l26.4,122.3l13.1,61.2l6.5,30.6c1.1,5.1,2.2,10.2,3.2,15.3c0.3,2.6,0.6,5.2,0.9,7.8
			c0.1,2.6,0.3,5.2,0.3,7.8c0.1,10.5-1.5,21-5.2,30.8c-3.7,9.8-9.6,18.8-17,26.1c-3.7,3.7-7.7,7.1-12,10c-4.3,3-8.9,5.6-13.6,7.8
			c-4.7,2.3-9.6,4.2-14.5,5.8c-5,1.6-10,3-15.2,3.8l0.1-0.1L319.7,492.1z"/>
	</g>
	<g>
		<path fill="#222E5C" d="M177.6,563.6l59.5-0.3l59.5-0.1l59.5-0.1c19.8-0.1,39.7,0,59.5,0.1l-0.4,0.3c1.2-5.9,1.6-12,1.6-18.1
			c-0.1-3-0.2-6.1-0.6-9.1c-0.4-3-0.9-6-1.8-8.9c-1.5-5.9-4.1-11.5-7.7-16.4c-3.6-4.8-8.3-8.9-13.7-11.7c-5.3-2.9-11.2-4.6-17.2-5.6
			c-1.5-0.3-3-0.4-4.5-0.6l-2.3-0.2c-0.8-0.1-1.5,0-2.3-0.1l-9.2-0.1l-36.6-0.5l36.6,0.1l9.2,0c0.8,0,1.5,0,2.3,0l2.3,0.2
			c1.5,0.2,3.1,0.2,4.6,0.6c6,0.9,12,2.7,17.4,5.6c5.4,2.9,10.2,7,13.9,11.9c3.6,5,6.3,10.6,7.8,16.6c0.9,3,1.4,6,1.8,9
			c0.4,3,0.6,6.1,0.7,9.2c0.1,6.1-0.4,12.3-1.5,18.3L416,564l-0.3,0c-19.8,0-39.7,0.1-59.5,0.1l-59.5-0.1l-59.5-0.1L177.6,563.6z"/>
	</g>
</g>
</svg>
