<?xml version="1.0" encoding="utf-8"?>
<!-- Generator: Adobe Illustrator 23.1.0, SVG Export Plug-In . SVG Version: 6.00 Build 0)  -->
<svg version="1.1" xmlns="http://www.w3.org/2000/svg" xmlns:xlink="http://www.w3.org/1999/xlink" x="0px" y="0px"
	 viewBox="0 0 595.3 595.3" enable-background="new 0 0 595.3 595.3" xml:space="preserve">
<g id="Capa_1">
</g>
<g id="Capa_2">
	<path fill="#A51C81" d="M333.7,38.1c0,0,43.2,35.9,31.8,167c0,0-14.7,87.2-8.1,126.3c0,0,21.8,95.3,10.1,157.3
		c0,0-28.7,121.4-74.4,57.9c0,0-10.6-10.6-16.3-60.3c0,0-3.3-52.2,11.4-134.5c0,0,9.4-21.2-15.5-34.6c0,0-39.9-24.9-46-48.5
		c0,0-11.8-37.9,9.8-48.5c0,0,27.7-20,36.7,21.2c0,0,2,35.4,19.6,51.7c0,0,13-81.5,2-129.6c0,0-17.1-57.9-5.7-117.3
		C288.9,46.3,297.1,8,333.7,38.1z"/>
	<g>
		<path fill="#611B53" d="M292.5,293.2c0.7-5.3,1.4-10.5,2-15.8c0.3-2.6,0.6-5.3,0.9-7.9c0.3-2.6,0.6-5.3,0.8-7.9
			c0.3-2.6,0.5-5.3,0.7-7.9c0.2-2.6,0.5-5.3,0.6-7.9l0.6-7.9l0.4-8c0.2-2.6,0.2-5.3,0.3-8c0.1-2.7,0.2-5.3,0.2-8
			c0-2.7,0.1-5.3,0.1-8l-0.2-8l0-2l-0.1-2l-0.2-4l-0.2-4c-0.1-1.3-0.3-2.6-0.4-4l-0.4-4c-0.1-1.3-0.2-2.6-0.5-4
			c-0.4-2.6-0.8-5.2-1.2-7.9c2.7,10.3,4,21,4.6,31.6c0.7,10.7,0.5,21.3,0,32c-0.5,10.7-1.5,21.3-2.8,31.8
			C296.4,272.2,294.7,282.8,292.5,293.2z"/>
	</g>
	<g>
		<path fill="#611B53" d="M236.3,220.3c1.8-1.3,3.7-2.4,5.7-3.3c2-0.9,4.2-1.5,6.4-1.9c2.2-0.3,4.5-0.3,6.7,0.2
			c2.2,0.5,4.4,1.4,6.2,2.7c0.5,0.3,0.9,0.6,1.4,1l1.3,1.1c0.8,0.8,1.6,1.6,2.2,2.6c0.7,0.9,1.3,1.9,1.9,2.8c0.6,1,1.1,2,1.6,3
			c1.9,4.1,3.2,8.4,4.2,12.7l0,0.1l0,0.1c0.3,4.6,1,9.3,1.9,13.8c0.9,4.6,2,9.1,3.4,13.6c1.4,4.4,3.1,8.8,5.3,12.9
			c1.1,2.1,2.3,4.1,3.6,6c1.4,1.9,2.8,3.7,4.5,5.4c-3.6-3.1-6.5-6.9-8.9-10.9c-2.4-4.1-4.3-8.5-5.9-12.9c-1.6-4.5-2.8-9.1-3.7-13.7
			c-0.9-4.7-1.6-9.3-2-14.1l0,0.2c-0.9-4.2-2.2-8.4-3.9-12.3c-0.5-1-0.9-1.9-1.5-2.9c-0.6-0.9-1.1-1.8-1.7-2.7
			c-0.6-0.9-1.3-1.7-2-2.5l-1.1-1.1c-0.4-0.4-0.8-0.7-1.2-1c-1.7-1.3-3.6-2.2-5.6-2.7c-2-0.5-4.2-0.7-6.3-0.5
			C244.3,216.4,240.1,218,236.3,220.3z"/>
	</g>
	<g>
		<path fill="#611B53" d="M332.5,38.1c2.7,2.4,5,5.3,7.2,8.2c2.1,3,4.1,6,5.8,9.2c3.5,6.4,6.4,13.1,8.9,20c2.5,6.9,4.5,13.9,6.1,21
			c0.4,1.8,0.8,3.6,1.2,5.3l1.1,5.4c0.3,1.8,0.6,3.6,0.9,5.4c0.3,1.8,0.6,3.6,0.8,5.4c2,14.5,3,29,3.1,43.6
			c0.1,14.6-0.4,29.2-1.6,43.7l0,0.1l0,0.1c-2.7,16.9-4.9,34-6.6,51.1c-0.9,8.5-1.6,17.1-2.1,25.6c-0.5,8.6-0.9,17.1-0.8,25.7
			c0,4.3,0.2,8.5,0.5,12.8l0.3,3.2l0.3,3.2c0.1,1.1,0.3,2.1,0.4,3.1c0.1,0.5,0.1,1,0.2,1.5l0.3,1.6c1.8,8.5,3.4,16.9,4.8,25.4
			c2.8,17,5.1,34.1,6.5,51.3c0.7,8.6,1.2,17.2,1.4,25.9c0.2,8.6,0.1,17.3-0.4,25.9c-0.5,8.6-1.4,17.2-3,25.8l-0.3,1.6l-0.4,1.6
			l-0.8,3.1c-0.6,2.1-1.2,4.2-1.8,6.2c-1.2,4.1-2.6,8.3-4,12.3c-2.9,8.2-6.1,16.2-10,23.9c-2,3.9-4.1,7.6-6.5,11.2
			c-2.4,3.6-5.1,7.1-8.3,10.1c-3.1,3-6.8,5.6-11.1,7c-2.1,0.7-4.3,0.9-6.5,0.8c-2.2-0.1-4.4-0.7-6.4-1.5c-4.1-1.7-7.6-4.4-10.6-7.4
			c-3.1-3-5.7-6.4-8.2-10c2.6,3.4,5.4,6.7,8.5,9.7c3.1,2.9,6.7,5.5,10.6,7c3.9,1.5,8.4,1.7,12.3,0.3c4-1.3,7.4-3.9,10.4-6.9
			c3-3,5.5-6.4,7.8-10c2.3-3.6,4.3-7.4,6.2-11.2c3.7-7.7,6.8-15.7,9.5-23.8c1.4-4.1,2.6-8.2,3.8-12.3c0.6-2.1,1.1-4.1,1.7-6.2
			l0.8-3.1l0.4-1.5l0.3-1.6c1.4-8.4,2.2-16.9,2.6-25.5c0.7-17.1,0-34.2-1.5-51.3c-1.5-17.1-3.8-34.1-6.7-51
			c-1.4-8.5-3-16.9-4.8-25.3l-0.3-1.6c-0.2-0.6-0.2-1.1-0.3-1.7c-0.2-1.1-0.3-2.2-0.5-3.3l-0.3-3.3l-0.3-3.3
			c-0.3-4.3-0.4-8.7-0.4-13c0-8.7,0.3-17.3,0.9-25.9c0.6-8.6,1.3-17.2,2.2-25.8c1.9-17.2,4.2-34.2,7-51.2l0,0.1
			c1.3-14.4,2.1-28.9,2.2-43.4c0.1-14.5-0.7-29-2.4-43.3c-1.8-14.4-4.6-28.6-9.1-42.4c-2.3-6.9-5-13.6-8.3-20
			c-1.7-3.2-3.5-6.3-5.5-9.4C337.4,43.6,335.2,40.6,332.5,38.1z"/>
	</g>
	<path fill="#E1E1E6" d="M300.8,442.3c0,18-10.7,35.9-16.3,35.9s-7.4-16.2-7.4-34.2s4.3-34.2,9.8-34.2
		C292.6,409.7,300.8,424.3,300.8,442.3z"/>
	<g>
		<path fill="#AFAFAF" d="M286.1,409.7c1.7-0.1,3.2,1,4.4,2.1c1.2,1.1,2.3,2.5,3.2,3.8c1.8,2.8,3.2,5.8,4.3,9
			c2.2,6.3,3.1,13,2.9,19.7c-0.3,6.7-1.9,13.3-4.6,19.3c-1.3,3-3,6-4.9,8.6c-1,1.3-2.1,2.6-3.3,3.7c-0.6,0.5-1.3,1.1-2,1.5
			c-0.7,0.4-1.5,0.7-2.4,0.7c0.8-0.1,1.6-0.5,2.2-0.9c0.7-0.5,1.2-1,1.8-1.6c1.1-1.2,2-2.5,2.9-3.9c1.7-2.7,3.1-5.7,4.3-8.7
			c1.2-3,2.1-6.1,2.8-9.3c0.7-3.1,1.1-6.3,1.3-9.6c0.1-3.2,0-6.4-0.4-9.6c-0.4-3.2-1-6.4-1.9-9.5c-0.9-3.1-2.1-6.1-3.6-9
			c-0.8-1.4-1.7-2.8-2.7-4c-0.5-0.6-1.1-1.2-1.8-1.6C287.7,410.1,286.9,409.8,286.1,409.7z"/>
	</g>
	<g>
		<path fill="#E1E1E6" d="M286.2,376c1.1,1.3,2.9,2.1,4.5,2c1.7-0.2,3.2-1.1,4.4-2.3c2.5-2.3,4.3-5.4,5.9-8.4
			c0.4-0.8,0.8-1.5,1.2-2.4c0.5-0.8,1-1.5,1.6-2.3c1.1-1.4,2.4-2.7,4-3.8c3-2.2,6.8-3.3,10.6-3c0.9,0.2,1.8,0.3,2.7,0.5l2.6,0.8
			l2.5,1.2c0.8,0.4,1.5,0.7,2.3,1c3.2,1.3,6.5,2.3,9.9,3.1c3.4,0.7,6.8,1.2,10.3,1c3.5-0.1,6.9-0.8,10.1-2.4c-2.9,2-6.5,3-10,3.4
			c-3.6,0.4-7.1,0.1-10.7-0.5c-3.5-0.6-6.9-1.6-10.3-2.8c-0.8-0.3-1.7-0.7-2.5-1l-2.3-1.1l-2.4-0.7c-0.8-0.2-1.6-0.3-2.4-0.4
			c-3.3-0.3-6.6,0.6-9.3,2.6c-1.4,0.9-2.6,2.1-3.7,3.4c-0.5,0.6-1,1.3-1.5,2c-0.4,0.7-0.9,1.5-1.3,2.3c-1.8,3-3.8,6.1-6.6,8.4
			c-1.4,1.1-3.1,2-5,2.1c-0.9-0.1-1.8-0.2-2.6-0.7C287.3,377.4,286.6,376.8,286.2,376z"/>
	</g>
	<g>
		<path fill="#611B53" d="M287.6,377.7c1.2,1.2,3,1.7,4.6,1.4c1.6-0.3,3.1-1.2,4.3-2.3c2.5-2.2,4.5-4.9,6.2-7.8
			c0.4-0.7,0.8-1.4,1.3-2.2c0.4-0.7,0.9-1.4,1.5-2.1c1.1-1.3,2.3-2.6,3.7-3.6c2.8-2.1,6.3-3.3,9.7-3.1c3.5,0.1,6.8,1.5,9.7,3.1
			c3,1.4,6.2,2.5,9.4,3.2c3.2,0.8,6.6,1.1,9.9,0.9c3.3-0.2,6.6-1.1,9.6-2.7c-2.8,1.8-6.2,2.8-9.6,3.2c-3.4,0.3-6.8,0-10.1-0.6
			c-3.3-0.7-6.6-1.8-9.7-3.2c-0.8-0.4-1.5-0.8-2.3-1.1c-0.8-0.3-1.5-0.7-2.3-0.9c-1.6-0.5-3.2-0.8-4.8-0.9c-3.3-0.2-6.5,0.9-9.2,2.8
			c-1.3,1-2.5,2.1-3.6,3.4c-1.1,1.3-1.8,2.7-2.8,4.2c-1.8,2.8-3.9,5.6-6.6,7.8c-1.3,1-2.9,1.9-4.6,2.2
			C290.5,379.6,288.7,379,287.6,377.7z"/>
	</g>
</g>
</svg>
